<?xml version="1.0" standalone="no"?>
<!DOCTYPE svg PUBLIC "-//W3C//DTD SVG 20010904//EN"
 "http://www.w3.org/TR/2001/REC-SVG-20010904/DTD/svg10.dtd">
<svg version="1.0" xmlns="http://www.w3.org/2000/svg"
 width="1053.000000pt" height="1053.000000pt" viewBox="0 0 1053.000000 1053.000000"
 preserveAspectRatio="xMidYMid meet">
<metadata>
Created by potrace 1.11, written by Peter Selinger 2001-2013
</metadata>
<g transform="translate(0.000000,1053.000000) scale(0.100000,-0.100000)"
fill="#000000" stroke="none">
<path d="M4979 10526 c-2 -2 -51 -6 -109 -10 -58 -3 -116 -8 -130 -10 -14 -2
-52 -7 -85 -10 -33 -4 -76 -9 -95 -12 -499 -71 -892 -178 -1330 -361 -143 -60
-411 -189 -505 -243 -22 -12 -60 -34 -85 -48 -25 -14 -101 -60 -170 -103 -543
-338 -1032 -789 -1421 -1309 -83 -110 -239 -336 -239 -345 0 -2 -20 -35 -44
-72 -108 -170 -286 -515 -358 -698 -11 -27 -25 -63 -33 -80 -63 -145 -202
-579 -229 -716 -2 -13 -11 -53 -20 -89 -8 -36 -18 -81 -21 -100 -3 -19 -10
-53 -15 -75 -9 -41 -10 -48 -30 -175 -6 -41 -13 -86 -16 -100 -2 -14 -6 -52
-9 -85 -3 -33 -8 -71 -10 -85 -28 -170 -27 -828 1 -1078 7 -66 33 -261 39
-297 3 -16 7 -43 10 -60 3 -16 7 -41 10 -55 3 -14 10 -50 16 -80 5 -30 12 -66
15 -80 13 -65 76 -307 109 -415 148 -488 363 -944 651 -1380 50 -77 105 -156
121 -176 15 -20 35 -47 43 -59 20 -29 43 -59 124 -159 269 -334 590 -645 933
-903 449 -339 969 -613 1492 -787 155 -52 423 -127 433 -121 2 1 16 -3 31 -9
15 -6 42 -13 60 -16 18 -4 73 -15 122 -25 50 -11 135 -26 190 -35 55 -8 109
-17 120 -19 11 -2 52 -7 90 -10 39 -4 81 -9 95 -11 182 -27 854 -27 1070 0 34
4 87 11 180 21 25 3 52 7 60 9 8 2 35 7 60 10 42 5 55 8 120 20 14 3 39 7 55
10 24 4 62 12 95 20 3 1 32 7 65 14 75 16 223 55 335 88 174 52 516 176 535
194 5 5 15 9 21 9 13 0 176 73 204 90 8 6 22 13 30 16 46 17 272 138 380 202
945 563 1673 1374 2128 2372 95 209 185 456 262 719 31 105 93 363 104 431 3
19 8 46 11 60 3 14 12 70 20 125 9 55 17 111 20 125 2 14 6 54 10 90 4 36 9
79 11 95 30 248 26 823 -7 1099 -5 45 -12 104 -15 131 -3 28 -12 87 -20 133
-8 45 -17 99 -20 120 -3 20 -17 87 -31 147 -24 107 -29 129 -37 170 -10 48
-61 222 -108 365 -205 630 -533 1219 -965 1735 -309 369 -691 715 -1068 969
-55 37 -110 74 -123 83 -13 9 -32 22 -42 27 -10 6 -65 39 -122 72 -273 163
-563 302 -828 398 -41 15 -84 31 -95 36 -104 45 -558 171 -704 195 -19 3 -37
7 -40 9 -3 2 -28 7 -55 10 -27 4 -52 9 -55 11 -3 2 -28 6 -56 9 -27 3 -59 7
-70 10 -11 2 -45 7 -75 11 -30 3 -66 8 -80 10 -14 2 -61 7 -105 11 -44 3 -91
8 -105 11 -31 5 -696 14 -701 9z"/>
</g>
</svg>
